<?xml version="1.0" encoding="utf-8"?>
<!-- Generator: Adobe Illustrator 19.1.0, SVG Export Plug-In . SVG Version: 6.00 Build 0)  -->
<svg version="1.1" id="Isolation_Mode" xmlns="http://www.w3.org/2000/svg" xmlns:xlink="http://www.w3.org/1999/xlink" x="0px"
	 y="0px" viewBox="0 0 190.3 190.3" style="enable-background:new 0 0 190.3 190.3;" xml:space="preserve">
<style type="text/css">
	.st0{clip-path:url(#SVGID_2_);fill:#FFFFFF;}
	.st1{clip-path:url(#SVGID_2_);}
</style>
<g>
	<defs>
		<rect id="SVGID_1_" width="190.3" height="190.3"/>
	</defs>
	<clipPath id="SVGID_2_">
		<use xlink:href="#SVGID_1_"  style="overflow:visible;"/>
	</clipPath>
	<path class="st0" d="M95.2,190.3C42.7,190.3,0,147.7,0,95.3c0-25.4,9.9-49.3,27.8-67.3C45.8,9.9,69.7,0,95.1,0
		c52.5,0,95.2,42.7,95.3,95.1C190.4,147.6,147.7,190.3,95.2,190.3L95.2,190.3z"/>
	<path class="st1" d="M95.2,80.4c-10.6,0-19.3-8.6-19.3-19.3c0-10.6,8.6-19.3,19.3-19.3c10.6,0,19.3,8.6,19.3,19.3
		C114.4,71.8,105.8,80.4,95.2,80.4 M95.2,43.3c-9.9,0-17.9,8-17.9,17.9c0,9.9,8,17.9,17.9,17.9c9.9,0,17.9-8,17.9-17.9
		C113.1,51.3,105,43.3,95.2,43.3"/>
	<path class="st1" d="M85.1,51v13.9c0,5.6,4.5,10.1,10.1,10.1c5.6,0,10.1-4.5,10.1-10.1V51H85.1z M86.8,67.2l1.3-2.2l1.3,2.2H86.8z
		 M91,67.2l-2.1-3.7l1-1.7l3.1,5.4H91z M94.6,67.2l-3.9-6.8l1-1.7l4.8,8.5H94.6z M98.3,67.2l-5.7-9.9l1-1.6l6.6,11.5H98.3z
		 M101.8,67.2l-7.5-13l1-1.7l8.4,14.7H101.8z"/>
	<path class="st1" d="M45.9,110.7h2.6c4.2,0,4.7-2.5,4.7-8.9s-0.5-8.9-4.7-8.9h-2.6V110.7z M49.5,88.4c7.2,0,9.4,3.8,9.4,13.4
		c0,9.6-2.2,13.4-9.4,13.4h-9.2V88.4H49.5z M61.8,88.4h14.5V93h-8.8v5.7h8.1v4.7h-8.1v7.2h8.8v4.7H61.8V88.4z M91.8,104.6l-2.7-11.1
		l-2.8,11.1H91.8z M92.9,109.3h-7.8l-1.4,6h-5.6l7.6-26.8h7.2l7.4,26.8h-5.9L92.9,109.3z M102,88.4h5.6v11.7l7-11.7h5.9l-7.8,12.3
		l7.8,14.5H114l-6.3-13v13H102V88.4z M122.9,88.4h5.4v26.8h-5.4V88.4z M136.8,97.7v17.6H132V88.4h6.7l6.5,16.5V88.4h4.9v26.8H144
		L136.8,97.7z"/>
	<path class="st1" d="M48.1,130.9v-8.6c0-0.1,0.1-0.1,0.2-0.2c0.1-0.1,0.3-0.1,0.5-0.1c0.2,0,0.4-0.1,0.6-0.1c0.2,0,0.3,0,0.5,0
		c0.2,0,0.3,0.1,0.4,0.2c0.1,0.1,0.2,0.3,0.2,0.4v8.6c0,0.9-0.1,1.7-0.3,2.3c-0.2,0.6-0.5,1.1-0.9,1.5c-0.4,0.4-0.9,0.7-1.6,0.8
		c-0.6,0.2-1.4,0.2-2.3,0.2h-0.2c-0.8,0-1.6-0.1-2.2-0.2c-0.6-0.2-1.1-0.4-1.6-0.8c-0.4-0.4-0.7-0.9-0.9-1.5
		c-0.2-0.6-0.3-1.4-0.3-2.3v-8.7c0-0.1,0.1-0.1,0.2-0.2c0.1-0.1,0.3-0.1,0.5-0.1c0.2,0,0.4-0.1,0.6-0.1c0.2,0,0.4,0,0.5,0
		c0.2,0,0.3,0.1,0.4,0.2c0.1,0.1,0.2,0.3,0.2,0.4v8.5c0,0.5,0,1,0.1,1.4c0.1,0.4,0.2,0.7,0.4,0.9c0.2,0.2,0.5,0.4,0.8,0.5
		c0.4,0.1,0.8,0.2,1.3,0.2h0.2c0.5,0,1-0.1,1.4-0.2c0.4-0.1,0.6-0.3,0.9-0.5c0.2-0.2,0.4-0.6,0.5-0.9
		C48.1,131.9,48.1,131.5,48.1,130.9"/>
	<path class="st1" d="M62.5,131.8v-9.5c0-0.1,0.1-0.1,0.2-0.2c0.1,0,0.3-0.1,0.5-0.1c0.2,0,0.4,0,0.6-0.1c0.2,0,0.4,0,0.5,0
		c0.3,0,0.5,0.2,0.5,0.6v13.1c0,0.2-0.1,0.3-0.2,0.4c-0.1,0.1-0.2,0.1-0.4,0.1c-0.1,0-0.2,0-0.4,0c-0.2,0-0.3,0-0.5-0.1
		c-0.2,0-0.3-0.1-0.5-0.1c-0.1,0-0.2-0.1-0.3-0.2l-6.2-9.5v9.3c0,0.2-0.1,0.3-0.2,0.4c-0.1,0.1-0.2,0.1-0.4,0.1c-0.1,0-0.3,0-0.5,0
		c-0.2,0-0.4,0-0.6-0.1c-0.2,0-0.3-0.1-0.5-0.1c-0.1-0.1-0.2-0.1-0.2-0.2v-13.3c0-0.1,0.1-0.1,0.2-0.2s0.3-0.1,0.5-0.1
		c0.2,0,0.4,0,0.6-0.1c0.2,0,0.3,0,0.5,0c0.1,0,0.3,0,0.4,0.1c0.1,0.1,0.2,0.2,0.2,0.3L62.5,131.8z"/>
	<path class="st1" d="M70.7,135.5c0,0.2-0.1,0.3-0.2,0.4c-0.1,0.1-0.3,0.1-0.4,0.1c-0.1,0-0.3,0-0.5,0c-0.2,0-0.4,0-0.6-0.1
		c-0.2,0-0.3-0.1-0.5-0.1c-0.1-0.1-0.2-0.1-0.2-0.2v-13.3c0-0.1,0.1-0.1,0.2-0.2s0.3-0.1,0.5-0.1c0.2,0,0.4,0,0.6-0.1
		c0.2,0,0.3,0,0.5,0c0.2,0,0.3,0.1,0.4,0.2c0.1,0.1,0.2,0.2,0.2,0.4V135.5z"/>
	<path class="st1" d="M79.1,132.1l2.9-9.8c0.2-0.2,0.4-0.3,0.6-0.3c0.2,0,0.5-0.1,0.8-0.1c0.1,0,0.3,0,0.4,0c0.1,0,0.2,0,0.3,0.1
		c0.1,0,0.2,0.1,0.2,0.2c0,0.1,0,0.2,0,0.4l-4.4,13.2c0,0.1-0.1,0.2-0.2,0.2c-0.1,0.1-0.2,0.1-0.3,0.1c-0.4,0-0.8,0-1.1-0.1
		c-0.3,0-0.5-0.1-0.5-0.2l-4.4-13.2c0-0.1,0-0.2,0-0.3c0-0.1,0.1-0.1,0.2-0.2c0.1,0,0.2-0.1,0.3-0.1c0.1,0,0.2,0,0.2,0
		c0.2,0,0.4,0,0.6,0c0.2,0,0.4,0,0.5,0.1c0.2,0,0.3,0.1,0.4,0.1c0.1,0.1,0.2,0.1,0.2,0.2l2.9,9.8c0.1,0.2,0.1,0.3,0.1,0.5
		s0,0.3,0.1,0.5c0-0.1,0-0.3,0-0.5C79,132.4,79,132.3,79.1,132.1"/>
	<path class="st1" d="M87,135.4v-12.8c0-0.2,0.1-0.3,0.2-0.4c0.1-0.1,0.3-0.1,0.4-0.1h7.6c0.1,0,0.3,0.1,0.4,0.2
		c0.1,0.1,0.1,0.2,0.1,0.4c0,0.1,0,0.2,0,0.4c0,0.2,0,0.3-0.1,0.5c0,0.2-0.1,0.3-0.1,0.4c0,0.1-0.1,0.2-0.2,0.2h-6v3.7h5.2
		c0.1,0,0.2,0.1,0.3,0.2s0.1,0.2,0.1,0.4c0,0.1,0,0.2,0,0.4c0,0.2,0,0.3-0.1,0.5c0,0.2-0.1,0.3-0.1,0.4c-0.1,0.1-0.1,0.2-0.2,0.2
		h-5.3v3.9h5.9c0.1,0,0.3,0.1,0.4,0.2c0.1,0.1,0.1,0.2,0.1,0.4c0,0.1,0,0.2,0,0.4c0,0.2,0,0.3-0.1,0.5c0,0.2-0.1,0.3-0.1,0.4
		c0,0.1-0.1,0.2-0.2,0.2h-7.5c-0.2,0-0.4,0-0.6-0.1C87.1,135.6,87,135.5,87,135.4"/>
	<path class="st1" d="M98.9,135.6v-13c0-0.1,0.1-0.3,0.2-0.4c0.1-0.1,0.3-0.1,0.4-0.1h4.2c0.9,0,1.6,0.1,2.2,0.2
		c0.6,0.1,1.1,0.4,1.5,0.7c0.4,0.3,0.7,0.7,0.9,1.3c0.2,0.5,0.3,1.2,0.3,2v0.4c0,0.6,0,1.1-0.1,1.6c-0.1,0.4-0.2,0.8-0.4,1.1
		c-0.2,0.3-0.5,0.6-0.8,0.8c-0.3,0.2-0.7,0.3-1.2,0.4l2.6,4.6c0.1,0.2,0.2,0.4,0.2,0.5c0,0.1,0,0.1-0.1,0.2
		c-0.1,0.1-0.1,0.1-0.2,0.1c-0.1,0-0.2,0-0.2,0c-0.1,0-0.1,0-0.2,0c-0.1,0-0.3,0-0.4,0c-0.2,0-0.4,0-0.5-0.1c-0.2,0-0.3-0.1-0.5-0.1
		c-0.1-0.1-0.2-0.2-0.3-0.3l-2.8-4.8h-2.3v4.8c0,0.2-0.1,0.3-0.2,0.4c-0.1,0.1-0.2,0.1-0.4,0.1c-0.1,0-0.3,0-0.5,0
		c-0.2,0-0.4,0-0.6-0.1c-0.2,0-0.3-0.1-0.5-0.1C99,135.7,98.9,135.7,98.9,135.6 M103.8,124.1h-2.6v4.6h2.6c0.5,0,0.9,0,1.2-0.1
		c0.3-0.1,0.5-0.2,0.7-0.3c0.2-0.2,0.3-0.4,0.3-0.6c0.1-0.3,0.1-0.6,0.1-1v-0.4c0-0.4,0-0.8-0.1-1.1s-0.2-0.5-0.3-0.6
		c-0.2-0.2-0.4-0.3-0.7-0.3C104.7,124.2,104.3,124.1,103.8,124.1"/>
	<path class="st1" d="M111.7,133.7c0.1,0,0.3,0.1,0.5,0.1c0.2,0,0.4,0.1,0.7,0.2c0.3,0.1,0.6,0.1,0.9,0.1c0.3,0,0.6,0.1,1,0.1
		c0.4,0,0.7,0,1-0.1c0.3-0.1,0.6-0.2,0.9-0.3c0.3-0.1,0.5-0.3,0.6-0.5c0.2-0.2,0.2-0.5,0.2-0.8c0-0.5-0.1-0.8-0.4-1.2
		c-0.3-0.3-0.7-0.6-1.1-0.9c-0.4-0.3-0.9-0.6-1.5-0.8c-0.5-0.3-1-0.6-1.5-1c-0.5-0.4-0.8-0.8-1.1-1.3c-0.3-0.5-0.4-1.1-0.4-1.9
		c0-0.6,0.1-1.1,0.3-1.6c0.2-0.4,0.5-0.8,0.9-1.1c0.4-0.3,0.9-0.5,1.4-0.6c0.5-0.1,1.1-0.2,1.8-0.2c0.1,0,0.4,0,0.6,0
		c0.3,0,0.6,0,0.9,0.1c0.3,0,0.6,0.1,0.9,0.1c0.3,0.1,0.6,0.1,0.8,0.2c0.2,0.1,0.3,0.2,0.3,0.2c0,0.1,0,0.2,0,0.4
		c0,0.3-0.1,0.6-0.2,0.8c-0.1,0.2-0.3,0.3-0.5,0.3c-0.3-0.1-0.7-0.1-1.1-0.2c-0.4-0.1-0.9-0.1-1.4-0.1c-0.8,0-1.4,0.1-1.9,0.3
		c-0.5,0.2-0.7,0.6-0.7,1.1c0,0.4,0.1,0.8,0.4,1.1c0.3,0.3,0.7,0.6,1.1,0.9c0.4,0.3,0.9,0.6,1.5,0.8c0.5,0.3,1,0.6,1.5,1
		c0.4,0.4,0.8,0.8,1.1,1.4c0.3,0.5,0.4,1.2,0.4,2c0,0.7-0.1,1.3-0.4,1.8c-0.3,0.5-0.6,0.8-1.1,1.1c-0.4,0.3-1,0.4-1.6,0.6
		c-0.6,0.1-1.2,0.2-1.8,0.2c-0.3,0-0.6,0-0.9,0c-0.3,0-0.6,0-0.9-0.1c-0.3,0-0.6-0.1-0.9-0.1c-0.3-0.1-0.5-0.1-0.7-0.2
		c-0.2-0.1-0.3-0.1-0.3-0.2c0-0.1,0-0.2,0-0.4c0-0.4,0.1-0.7,0.2-0.9C111.4,133.7,111.5,133.6,111.7,133.7"/>
	<path class="st1" d="M125.1,135.5c0,0.2-0.1,0.3-0.2,0.4c-0.1,0.1-0.3,0.1-0.4,0.1c-0.1,0-0.3,0-0.5,0c-0.2,0-0.4,0-0.6-0.1
		c-0.2,0-0.3-0.1-0.5-0.1c-0.1-0.1-0.2-0.1-0.2-0.2v-13.3c0-0.1,0.1-0.1,0.2-0.2s0.3-0.1,0.5-0.1c0.2,0,0.4,0,0.6-0.1
		c0.2,0,0.3,0,0.5,0c0.2,0,0.3,0.1,0.4,0.2c0.1,0.1,0.2,0.2,0.2,0.4V135.5z"/>
	<path class="st1" d="M133.9,124.1v11.3c0,0.2-0.1,0.3-0.2,0.4c-0.1,0.1-0.3,0.1-0.4,0.1c-0.1,0-0.3,0-0.5,0c-0.2,0-0.4,0-0.6-0.1
		c-0.2,0-0.3-0.1-0.5-0.1c-0.1-0.1-0.2-0.1-0.2-0.2v-11.5h-3.5c-0.1,0-0.3-0.1-0.4-0.2c-0.1-0.1-0.1-0.2-0.1-0.4c0-0.1,0-0.2,0-0.4
		s0-0.3,0.1-0.5c0-0.2,0.1-0.3,0.1-0.4c0-0.1,0.1-0.2,0.2-0.2h9.4c0.1,0,0.3,0.1,0.4,0.2c0.1,0.1,0.1,0.2,0.1,0.4c0,0.1,0,0.2,0,0.4
		c0,0.2,0,0.3-0.1,0.5c0,0.2-0.1,0.3-0.1,0.4c-0.1,0.1-0.1,0.2-0.2,0.2H133.9z"/>
	<path class="st1" d="M145.9,130.8v4.7c0,0.2-0.1,0.3-0.2,0.4c-0.1,0.1-0.3,0.1-0.4,0.1c-0.1,0-0.3,0-0.4,0c-0.2,0-0.4,0-0.6-0.1
		c-0.2,0-0.3-0.1-0.5-0.1c-0.1-0.1-0.2-0.1-0.2-0.2v-4.8l-4.1-8.1c-0.1-0.3-0.2-0.5-0.1-0.6c0.1-0.1,0.3-0.2,0.6-0.2
		c0.2,0,0.4,0,0.5,0c0.2,0,0.4,0,0.5,0c0.2,0,0.3,0.1,0.4,0.1c0.1,0,0.2,0.1,0.2,0.2l3,6.2l3-6.2c0-0.1,0.1-0.1,0.2-0.2
		c0.1,0,0.2-0.1,0.4-0.1c0.2,0,0.3,0,0.5,0c0.2,0,0.4,0,0.5,0c0.3,0,0.5,0.1,0.6,0.2c0.1,0.1,0.1,0.3-0.1,0.6L145.9,130.8z"/>
</g>
</svg>
